<svg xmlns="http://www.w3.org/2000/svg" xmlns:xlink="http://www.w3.org/1999/xlink" viewBox="0 0 1367.04 753.77"><defs><style>.cls-1{fill:url(#linear-gradient);}</style><linearGradient id="linear-gradient" x1="1137.94" y1="134.09" x2="49.09" y2="715.76" gradientUnits="userSpaceOnUse"><stop offset="0" stop-color="#2aa9ff"/><stop offset="1" stop-color="#3fffec"/></linearGradient></defs><title>bg</title><g id="Layer_2" data-name="Layer 2"><g id="Layer_1-2" data-name="Layer 1"><path class="cls-1" d="M77.42,680.5a182.2,182.2,0,0,1,79.08,17.56c24.84,11.63,50.11,26.81,77.06,23C250,718.7,265.39,709.38,281,702c65.7-31,140.1-27,203.79,10.79,11.34,6.74,22.95,14.68,35.34,14,10.35-.56,19.91-7.09,29.36-12.79,42.08-25.38,88.88-36,134.85-31.79a210.91,210.91,0,0,1,66.47,17c19.83,8.84,38.82,24.65,60.21,25.36,40.16,1.33,81-36.62,122.13-42,42.7-5.6,86.44,2.53,126.2,24.33,20.32,11.15,41.51,26.71,63.93,27.73,19.41.87,34.15-14.14,52.63-19.28,17.86-5,37.49-5.92,55.65-5.92,48.8,0,94.81,16,135.32,44.33-.49-68.39-2.4-363.6.1-451.77,2.84-99.94-162.5-177.5-337.5-177.5C796.5,123.05,683,0,683,0H0V694.37A224.09,224.09,0,0,1,77.42,680.5Z"/></g></g></svg>